:SAMPLES-PER-SECOND 30
:FULLY-SPECIFIED
:DEGREES
559
root  -6.88651 33.3141 2.94003 -173.084 -38.0447 178.632
RightUpLeg  -17.2215 12.472 0.437856
RightLeg  25.3305 1.87287 0.738496
RightFoot  -2.23769 -0.00891063 -0.0787271
RightToes  -33.0358 -0.165375 -0.272502
Spine  6.50707 -1.33755 -0.156707
Spine1  12.1376 -1.62309 -2.58087
HEad  19.9858 -11.0988 8.30455
LeftShoulder1  0 -2.42657e-020 -4.95415e-022
LeftArm  -7.40687 -0.0874567 -91.7906
LeftForeArm  55.6333 -29.0745 -5.58267
LeftHand  0.671438 -13.5273 -6.02985
RightShoulder  0 2.42657e-020 1.07489e-018
RightArm  -40.1797 9.64421 90.7617
RightForeArm  39.2685 18.2547 3.32002
RightHand  -1.09971 17.51 -6.76424
LeftUpLeg  -17.8026 19.2674 9.75461
LeftLeg  24.5192 1.3399 0.506971
LeftFoot  8.84313 -0.0139605 0.180536
LeftToes  -21.8514 1.33192e-006 1.13262e-007
560
root  -6.39503 33.384 2.78782 -173.262 -40.2137 178.688
RightUpLeg  -16.3071 11.6471 1.41993
RightLeg  23.7466 0.664838 0.23927
RightFoot  -1.62309 -0.00584279 -0.0349433
RightToes  -30.6608 -0.148498 -0.256532
Spine  6.50637 -1.23526 0.0777134
Spine1  12.1926 -1.44726 -2.12948
HEad  23.3402 -10.339 7.9208
LeftShoulder1  0 -2.42657e-020 -4.95415e-022
LeftArm  -7.15034 1.34541 -92.1102
LeftForeArm  54.9513 -30.5049 -5.92107
LeftHand  0.715193 -13.6053 -6.36321
RightShoulder  0 2.42657e-020 1.07489e-018
RightArm  -41.4364 9.77636 89.5114
RightForeArm  40.3005 17.7606 3.22249
RightHand  -1.15124 17.4863 -7.10787
LeftUpLeg  -17.2404 16.5661 8.38945
LeftLeg  26.4295 2.83325 1.18409
LeftFoot  5.50994 -0.0126778 0.26345
LeftToes  -19.5008 1.33192e-006 1.13262e-007
561
root  -5.86461 33.3597 2.64397 -173.409 -42.3842 178.825
RightUpLeg  -16.1785 10.6117 2.45434
RightLeg  23.2794 -0.414415 -0.150726
RightFoot  -1.51568 -0.0044008 -0.0171204
RightToes  -28.6007 -0.134405 -0.242124
Spine  6.65484 -0.926165 0.294649
Spine1  12.4942 -0.818708 -1.78261
HEad  25.1326 -10.4782 8.40594
LeftShoulder1  0 -2.42657e-020 -4.95415e-022
LeftArm  -7.61357 1.90259 -92.2916
LeftForeArm  54.3713 -30.9183 -6.02158
LeftHand  0.631563 -13.2997 -5.7861
RightShoulder  0 2.42657e-020 1.07489e-018
RightArm  -42.7039 10.1112 88.2664
RightForeArm  39.8625 17.6266 3.19699
RightHand  -1.19353 17.1465 -7.53736
LeftUpLeg  -16.6845 15.013 7.1238
LeftLeg  27.9858 5.0998 2.29539
LeftFoot  2.09345 -0.00313092 0.171353
LeftToes  -15.4988 1.33192e-006 1.13262e-007
562
root  -5.27141 33.2863 2.55673 -173.537 -45.145 179.296
RightUpLeg  -16.8122 9.2096 3.67741
RightLeg  23.4596 -1.67469 -0.605229
RightFoot  -1.58755 -0.00416803 0.00517957
RightToes  -26.0229 -0.117515 -0.223396
Spine  6.79562 -0.629435 0.602386
Spine1  12.7649 -0.192908 -1.3321
HEad  26.1842 -11.4274 9.4452
LeftShoulder1  0 -2.42657e-020 -4.95415e-022
LeftArm  -9.43091 1.8397 -92.55
LeftForeArm  54.6179 -30.1967 -5.84833
LeftHand  0.543855 -13.0201 -5.13588
RightShoulder  0 2.42657e-020 1.07489e-018
RightArm  -44.9966 10.4579 87.1799
RightForeArm  38.7541 17.6465 3.20211
RightHand  -1.18764 17.0316 -7.55214
LeftUpLeg  -16.7675 14.1096 6.0983
LeftLeg  29.397 7.18726 3.4445
LeftFoot  -0.715004 -0.000864082 -0.13849
LeftToes  -13.3021 1.33192e-006 1.13262e-007
563
root  -4.64962 33.2207 2.49639 -173.182 -48.215 179.53
RightUpLeg  -17.9513 7.33728 4.62903
RightLeg  23.6934 -2.67655 -0.977466
RightFoot  -1.60062 -0.00444797 0.023272
RightToes  -23.9464 -0.104533 -0.20777
Spine  6.88665 -0.333279 0.838351
Spine1  12.9392 0.41995 -0.978895
HEad  26.1823 -12.8641 10.739
LeftShoulder1  0 -2.42657e-020 -4.95415e-022
LeftArm  -12.2819 1.32659 -92.6405
LeftForeArm  54.9291 -28.6799 -5.49293
LeftHand  0.449101 -12.5971 -4.43952
RightShoulder  0 2.42657e-020 1.07489e-018
RightArm  -46.897 10.7984 86.2137
RightForeArm  36.6014 17.8489 3.24368
RightHand  -1.08807 16.7347 -7.0202
LeftUpLeg  -17.1407 14.7091 4.92979
LeftLeg  29.8296 8.30397 4.05197
LeftFoot  -2.5382 -0.0100902 -0.455469
LeftToes  -12.9474 1.33192e-006 1.13262e-007
564
root  -4.00923 33.178 2.45421 -172.503 -52.0211 179.527
RightUpLeg  -19.1755 4.81171 5.42032
RightLeg  23.6247 -3.71425 -1.34932
RightFoot  -1.50981 -0.00512927 0.0375574
RightToes  -22.2782 -0.0945196 -0.194882
Spine  7.0309 -0.172059 1.04793
Spine1  13.2083 0.779677 -0.72151
HEad  25.3867 -14.8403 12.4087
LeftShoulder1  0 -2.42657e-020 -4.95415e-022
LeftArm  -15.5748 0.281205 -92.4124
LeftForeArm  54.6995 -26.6641 -5.03805
LeftHand  0.332855 -11.7977 -3.5928
RightShoulder  0 2.42657e-020 1.07489e-018
RightArm  -48.9185 11.3622 85.4009
RightForeArm  33.9305 18.0995 3.2949
RightHand  -0.922588 16.4231 -6.01903
LeftUpLeg  -17.842 14.9208 3.80737
LeftLeg  29.3569 9.28683 4.4325
LeftFoot  -4.05865 -0.0279055 -0.787549
LeftToes  -10.2812 1.33192e-006 1.13262e-007
565
root  -3.34566 33.1616 2.42974 -171.475 -56.3382 179.286
RightUpLeg  -20.5089 2.09561 6.11567
RightLeg  23.2496 -5.02125 -1.78416
RightFoot  -1.32101 -0.00596449 0.0463243
RightToes  -20.038 -0.0816706 -0.177128
Spine  7.17742 -0.0255396 1.29208
Spine1  13.4727 1.09176 -0.35305
HEad  23.8798 -17.6175 14.1012
LeftShoulder1  0 -2.42657e-020 -4.95415e-022
LeftArm  -19.0695 -1.19329 -92.1012
LeftForeArm  54.1586 -24.1978 -4.50411
LeftHand  0.268969 -11.06 -3.14948
RightShoulder  0 2.42657e-020 1.07489e-018
RightArm  -51.0747 12.1856 84.3464
RightForeArm  29.6961 18.2823 3.33351
RightHand  -0.729682 15.672 -4.93033
LeftUpLeg  -18.9381 14.669 2.80781
LeftLeg  27.9648 9.60626 4.30219
LeftFoot  -4.55887 -0.0360435 -0.9055
LeftToes  -7.98812 1.33192e-006 1.13262e-007
566
root  -2.6408 33.1601 2.43894 -169.523 -60.8444 178.233
RightUpLeg  -22.2816 -1.03659 6.48808
RightLeg  22.9652 -5.99417 -2.09411
RightFoot  -0.999563 -0.00592672 0.0357575
RightToes  -18.633 -0.0739702 -0.165741
Spine  7.24488 0.133342 1.43921
Spine1  13.5402 1.48385 -0.214953
HEad  22.199 -20.497 15.6475
LeftShoulder1  0 -2.42657e-020 -4.95415e-022
LeftArm  -22.3487 -2.45529 -91.3791
LeftForeArm  53.7165 -22.4385 -4.13636
LeftHand  0.20655 -10.2198 -2.68129
RightShoulder  0 2.42657e-020 1.07489e-018
RightArm  -53.9492 13.3325 83.3509
RightForeArm  25.0368 18.0701 3.29398
RightHand  -0.482128 14.6632 -3.37737
LeftUpLeg  -20.6827 12.7381 2.15232
LeftLeg  26.1182 8.38095 3.441
LeftFoot  -3.73057 -0.021247 -0.652413
LeftToes  -5.03149 1.33192e-006 1.13262e-007
567
root  -1.9138 33.1612 2.44477 -166.906 -65.3075 176.446
RightUpLeg  -24.1427 -4.35096 6.79902
RightLeg  22.7095 -6.79445 -2.33763
RightFoot  -0.643683 -0.00567987 0.0182944
RightToes  -17.419 -0.0675429 -0.155753
Spine  7.38273 0.415821 1.53763
Spine1  13.7473 2.16945 -0.210047
HEad  19.8166 -23.5548 17.6822
LeftShoulder1  0 -2.42657e-020 -4.95415e-022
LeftArm  -24.0568 -3.8968 -90.1958
LeftForeArm  52.9275 -21.6759 -3.98116
LeftHand  0.111723 -9.48315 -1.71808
RightShoulder  0 2.42657e-020 1.07489e-018
RightArm  -56.8707 14.5641 82.2939
RightForeArm  19.5295 18.4056 3.36009
RightHand  -0.267498 13.4797 -1.89413
LeftUpLeg  -23.1099 10.0979 1.91143
LeftLeg  24.8595 6.34306 2.44799
LeftFoot  -0.760265 -0.000828836 -0.124934
LeftToes  -9.9795 1.33192e-006 1.13262e-007
568
root  -1.22973 33.1545 2.40024 -164.039 -69.1305 174.007
RightUpLeg  -25.4098 -7.07563 7.10147
RightLeg  22.149 -7.7206 -2.56935
RightFoot  -0.325667 -0.0051046 -0.00578804
RightToes  -15.984 -0.0602206 -0.143774
Spine  7.65592 0.996576 1.59253
Spine1  14.2049 3.46201 -0.258234
HEad  16.9211 -26.9608 19.9568
LeftShoulder1  0 -2.42657e-020 -4.95415e-022
LeftArm  -25.3071 -5.64153 -88.9938
LeftForeArm  51.9782 -21.1682 -3.87956
LeftHand  0.123054 -9.0274 -1.93012
RightShoulder  0 2.42657e-020 1.07489e-018
RightArm  -60.2782 15.6172 80.9563
RightForeArm  14.5791 19.3483 3.54465
RightHand  -0.0270208 13.0621 0.134058
LeftUpLeg  -25.2905 10.1092 1.28561
LeftLeg  24.446 1.18178 0.445089
LeftFoot  0.88472 1.25041e-005 -0.0016286
LeftToes  -7.93972 1.33192e-006 1.13262e-007
